ffmpeg version N-55863-g9f38fac053-static https://johnvansickle.com/ffmpeg/  Copyright (c) 2000-2021 the FFmpeg developers
  built with gcc 8 (Debian 8.3.0-6)
  configuration: --enable-gpl --enable-version3 --enable-static --disable-debug --disable-ffplay --disable-indev=sndio --disable-outdev=sndio --cc=gcc --enable-fontconfig --enable-frei0r --enable-gnutls --enable-gmp --enable-libgme --enable-gray --enable-libaom --enable-libfribidi --enable-libass --enable-libvmaf --enable-libfreetype --enable-libmp3lame --enable-libopencore-amrnb --enable-libopencore-amrwb --enable-libopenjpeg --enable-librubberband --enable-libsoxr --enable-libspeex --enable-libsrt --enable-libvorbis --enable-libopus --enable-libtheora --enable-libvidstab --enable-libvo-amrwbenc --enable-libvpx --enable-libwebp --enable-libx264 --enable-libx265 --enable-libxml2 --enable-libdav1d --enable-libxvid --enable-libzvbi --enable-libzimg
  libavutil      56. 64.100 / 56. 64.100
  libavcodec     58.119.100 / 58.119.100
  libavformat    58. 65.101 / 58. 65.101
  libavdevice    58. 11.103 / 58. 11.103
  libavfilter     7.100.100 /  7.100.100
  libswscale      5.  8.100 /  5.  8.100
  libswresample   3.  8.100 /  3.  8.100
  libpostproc    55.  8.100 / 55.  8.100
Input #0, mov,mp4,m4a,3gp,3g2,mj2, from '/home/yiaapc5/public_html/f_data/data_userfiles/user_uploads/3631926655/v/1613354901.mp4':
  Metadata:
    major_brand     : mp42
    minor_version   : 0
    compatible_brands: isommp42
    creation_time   : 2021-02-14T14:25:57.000000Z
  Duration: 00:02:21.06, start: 0.000000, bitrate: 510 kb/s
    Stream #0:0(und): Video: h264 (Main) (avc1 / 0x31637661), yuv420p(tv, bt709), 1280x720 [SAR 1:1 DAR 16:9], 379 kb/s, 23.98 fps, 23.98 tbr, 24k tbn, 47.95 tbc (default)
    Metadata:
      creation_time   : 2021-02-14T14:25:57.000000Z
      handler_name    : ISO Media file produced by Google Inc. Created on: 02/14/2021.
      vendor_id       : [0][0][0][0]
    Stream #0:1(und): Audio: aac (LC) (mp4a / 0x6134706D), 44100 Hz, stereo, fltp, 127 kb/s (default)
    Metadata:
      creation_time   : 2021-02-14T14:25:57.000000Z
      handler_name    : ISO Media file produced by Google Inc. Created on: 02/14/2021.
      vendor_id       : [0][0][0][0]
Codec AVOption rc_eq (Set rate control equation. When computing the expression, besides the standard functions defined in the section 'Expression Evaluation', the following functions are available: bits2qp(bits), qp2bits(qp). Also the following constants are available: iTex pTex tex mv fCode iCount mcVar var isI isP isB avgQP qComp avgIITex avgPITex avgPPTex avgBPTex avgTex.) specified for output file #0 (/home/yiaapc5/public_html/f_data/data_userfiles/user_media/3631926655/v/da8da1ce565aa9154ab1def17fc194dd.mob.nomob.mp4) has not been used for any stream. The most likely reason is either wrong type (e.g. a video option with no video streams) or that it is a private option of some encoder which was not actually used for any stream.
Stream mapping:
  Stream #0:0 -> #0:0 (h264 (native) -> h264 (libx264))
  Stream #0:1 -> #0:1 (aac (native) -> aac (native))
Press [q] to stop, [?] for help
[libx264 @ 0x5f426c0] Application has requested 32 threads. Using a thread count greater than 16 is not recommended.
[libx264 @ 0x5f426c0] using SAR=136/135
[libx264 @ 0x5f426c0] frame MB size (30x17) > level limit (396)
[libx264 @ 0x5f426c0] VBV bitrate (10000) > level limit (768)
[libx264 @ 0x5f426c0] VBV buffer (10000) > level limit (2000)
[libx264 @ 0x5f426c0] MB rate (12227) > level limit (11880)
[libx264 @ 0x5f426c0] using cpu capabilities: MMX2 SSE2Fast SSSE3 SSE4.2 AVX
[libx264 @ 0x5f426c0] profile Constrained Baseline, level 1.3, 4:2:0, 8-bit
[libx264 @ 0x5f426c0] 264 - core 161 r3040 35417dc - H.264/MPEG-4 AVC codec - Copyleft 2003-2021 - http://www.videolan.org/x264.html - options: cabac=0 ref=1 deblock=1:0:0 analyse=0x1:0 me=hex subme=1 psy=1 psy_rd=1.00:0.00 mixed_ref=0 me_range=16 chroma_me=1 trellis=0 8x8dct=0 cqm=0 deadzone=21,11 fast_pskip=1 chroma_qp_offset=0 threads=32 lookahead_threads=2 sliced_threads=0 nr=0 decimate=1 interlaced=0 bluray_compat=0 constrained_intra=0 bframes=0 weightp=0 keyint=300 keyint_min=25 scenecut=40 intra_refresh=0 rc_lookahead=30 rc=abr mbtree=1 bitrate=511 ratetol=1.0 qcomp=0.60 qpmin=10 qpmax=51 qpstep=4 vbv_maxrate=10000 vbv_bufsize=10000 nal_hrd=none filler=0 ip_ratio=1.41 aq=1:1.00
Output #0, mp4, to '/home/yiaapc5/public_html/f_data/data_userfiles/user_media/3631926655/v/da8da1ce565aa9154ab1def17fc194dd.mob.nomob.mp4':
  Metadata:
    major_brand     : mp42
    minor_version   : 0
    compatible_brands: isommp42
    encoder         : Lavf58.65.101
    Stream #0:0(und): Video: h264 (avc1 / 0x31637661), yuv420p(tv, bt709, progressive), 480x272 [SAR 136:135 DAR 16:9], q=2-31, 511 kb/s, 23.98 fps, 24k tbn (default)
    Metadata:
      creation_time   : 2021-02-14T14:25:57.000000Z
      handler_name    : ISO Media file produced by Google Inc. Created on: 02/14/2021.
      vendor_id       : [0][0][0][0]
      encoder         : Lavc58.119.100 libx264
    Side data:
      cpb: bitrate max/min/avg: 10000000/0/511000 buffer size: 10000000 vbv_delay: N/A
    Stream #0:1(und): Audio: aac (LC) (mp4a / 0x6134706D), 44100 Hz, stereo, fltp, 127 kb/s (default)
    Metadata:
      creation_time   : 2021-02-14T14:25:57.000000Z
      handler_name    : ISO Media file produced by Google Inc. Created on: 02/14/2021.
      vendor_id       : [0][0][0][0]
      encoder         : Lavc58.119.100 aac
frame=    1 fps=0.0 q=0.0 size=       0kB time=00:00:00.41 bitrate=   0.9kbits/s speed=12.8x    frame=  202 fps=0.0 q=10.0 size=       0kB time=00:00:08.70 bitrate=   0.0kbits/s speed=16.3x    frame=  400 fps=387 q=22.0 size=    1024kB time=00:00:16.95 bitrate= 494.9kbits/s speed=16.4x    frame=  594 fps=387 q=24.0 size=    1792kB time=00:00:25.19 bitrate= 582.7kbits/s speed=16.4x    frame=  798 fps=392 q=25.0 size=    2560kB time=00:00:33.45 bitrate= 626.8kbits/s speed=16.4x    frame=  996 fps=393 q=25.0 size=    3072kB time=00:00:41.79 bitrate= 602.1kbits/s speed=16.5x    frame= 1194 fps=393 q=23.0 size=    3584kB time=00:00:50.31 bitrate= 583.5kbits/s speed=16.6x    frame= 1400 fps=396 q=23.0 size=    4352kB time=00:00:58.74 bitrate= 606.9kbits/s speed=16.6x    frame= 1601 fps=396 q=26.0 size=    5120kB time=00:01:07.43 bitrate= 622.0kbits/s speed=16.7x    frame= 1806 fps=398 q=28.0 size=    6144kB time=00:01:15.69 bitrate= 664.9kbits/s speed=16.7x    frame= 2008 fps=398 q=28.0 size=    6656kB time=00:01:24.19 bitrate= 647.6kbits/s speed=16.7x    frame= 2208 fps=399 q=27.0 size=    7168kB time=00:01:32.64 bitrate= 633.8kbits/s speed=16.7x    frame= 2411 fps=399 q=27.0 size=    7680kB time=00:01:40.89 bitrate= 623.6kbits/s speed=16.7x    frame= 2610 fps=399 q=27.0 size=    8448kB time=00:01:49.13 bitrate= 634.1kbits/s speed=16.7x    frame= 2811 fps=399 q=26.0 size=    8960kB time=00:01:57.42 bitrate= 625.1kbits/s speed=16.7x    frame= 3016 fps=400 q=26.0 size=    9472kB time=00:02:06.15 bitrate= 615.1kbits/s speed=16.7x    frame= 3262 fps=405 q=22.0 size=    9728kB time=00:02:16.23 bitrate= 585.0kbits/s speed=16.9x    frame= 3382 fps=408 q=-1.0 Lsize=   10071kB time=00:02:21.03 bitrate= 584.9kbits/s speed=  17x    
video:8137kB audio:1852kB subtitle:0kB other streams:0kB global headers:0kB muxing overhead: 0.813783%
[libx264 @ 0x5f426c0] frame I:111   Avg QP:15.09  size: 11761
[libx264 @ 0x5f426c0] frame P:3271  Avg QP:17.41  size:  2148
[libx264 @ 0x5f426c0] mb I  I16..4: 39.3%  0.0% 60.7%
[libx264 @ 0x5f426c0] mb P  I16..4:  5.5%  0.0%  0.0%  P16..4: 35.2%  0.0%  0.0%  0.0%  0.0%    skip:59.2%
[libx264 @ 0x5f426c0] final ratefactor: 18.31
[libx264 @ 0x5f426c0] coded y,uvDC,uvAC intra: 44.0% 46.8% 29.5% inter: 15.7% 8.0% 1.1%
[libx264 @ 0x5f426c0] i16 v,h,dc,p: 47% 31% 12%  9%
[libx264 @ 0x5f426c0] i4 v,h,dc,ddl,ddr,vr,hd,vl,hu: 29% 27%  9%  6%  6%  5%  6%  6%  7%
[libx264 @ 0x5f426c0] i8c dc,h,v,p: 48% 27% 17%  7%
[libx264 @ 0x5f426c0] kb/s:472.55
[aac @ 0x5f44d40] Qavg: 10774.942
